<!DOCTYPE svg PUBLIC "-//W3C//DTD SVG 20010904//EN" "http://www.w3.org/TR/2001/REC-SVG-20010904/DTD/svg10.dtd">
<svg version="1.0" xmlns="http://www.w3.org/2000/svg" width="450px" height="450px" viewBox="0 0 4500 4500" preserveAspectRatio="xMidYMid meet">
<g id="layer101" fill="#ffffff" stroke="none">
 <path d="M0 2250 l0 -2250 2250 0 2250 0 0 2250 0 2250 -2250 0 -2250 0 0 -2250z m4420 -2 l-1 -2173 -2172 3 c-1194 2 -2172 4 -2172 5 0 1 2 974 5 2162 l5 2160 1355 5 c745 3 1721 6 2168 8 l813 2 -1 -2172z"/>
 <path d="M180 2235 l0 -2055 2054 0 2054 0 4 1670 c2 918 2 1843 0 2055 l-4 385 -2054 0 -2054 0 0 -2055z m4068 0 l3 -2015 -2016 0 -2015 0 0 2015 0 2015 2013 0 2013 0 2 -2015z"/>
 <path d="M2328 2568 l-3 -1023 26 -25 c15 -14 143 -165 285 -335 l259 -310 -3 1067 -2 1068 385 0 385 0 0 290 0 290 -665 0 -665 0 -2 -1022z"/>
 <path d="M945 3556 c-51 -19 -110 -82 -124 -132 -6 -22 -11 -73 -11 -114 1 -115 40 -188 125 -233 53 -28 170 -29 237 -4 l47 18 -20 52 c-30 75 -34 78 -74 61 -36 -15 -82 -18 -110 -8 -26 10 -45 59 -45 116 0 64 16 98 54 117 25 12 37 11 87 -3 32 -9 63 -16 69 -16 6 0 10 28 10 65 0 56 -3 66 -22 76 -35 19 -177 22 -223 5z"/>
 <path d="M1985 3559 c-95 -36 -140 -111 -140 -239 0 -73 4 -93 28 -141 33 -69 81 -104 160 -120 58 -12 125 -5 190 20 33 13 33 16 2 86 l-24 55 -39 -16 c-97 -38 -157 2 -157 105 0 110 44 146 145 117 33 -9 64 -16 70 -16 6 0 10 28 10 65 0 62 -1 66 -27 77 -39 15 -182 20 -218 7z"/>
 <path d="M1440 3375 l0 -185 -55 0 -55 0 0 -65 0 -65 193 2 192 3 0 60 0 60 -57 3 -58 3 0 184 0 185 -80 0 -80 0 0 -185z"/>
 <path d="M800 1943 l0 -1068 29 30 c15 17 254 285 530 598 276 312 503 567 505 567 1 0 85 -97 187 -216 l184 -215 5 393 c3 216 9 399 14 407 7 11 5 13 -6 9 -10 -4 -75 54 -203 182 l-188 188 -78 -66 c-43 -36 -81 -72 -84 -81 -3 -9 -77 -90 -165 -181 l-160 -165 1 45 c0 25 0 179 0 343 l-1 297 -285 0 -285 0 0 -1067z"/>
 </g>

</svg>